<svg xmlns="http://www.w3.org/2000/svg" width="1000" height="600">
  <rect width="100%" height="100%" fill="#f7fafc"/>
  <text x="500.0" y="40" text-anchor="middle" font-size="28" font-weight="bold">Kategorite me te shpeshta te sulmeve</text>
  <line x1="90" y1="80" x2="90" y2="480" stroke="#2d3748" stroke-width="2"/>
  <line x1="90" y1="480" x2="940" y2="480" stroke="#2d3748" stroke-width="2"/>
  <rect x="98.00" y="80.00" width="90.25" height="400.00" fill="#2f855a" rx="6" /><rect x="204.25" y="282.47" width="90.25" height="197.53" fill="#2f855a" rx="6" /><rect x="310.50" y="335.61" width="90.25" height="144.39" fill="#2f855a" rx="6" /><rect x="416.75" y="361.75" width="90.25" height="118.25" fill="#2f855a" rx="6" /><rect x="523.00" y="363.33" width="90.25" height="116.67" fill="#2f855a" rx="6" /><rect x="629.25" y="455.90" width="90.25" height="24.10" fill="#2f855a" rx="6" /><rect x="735.50" y="468.89" width="90.25" height="11.11" fill="#2f855a" rx="6" /><rect x="841.75" y="471.14" width="90.25" height="8.86" fill="#2f855a" rx="6" />
  <text x="143.12" y="545" text-anchor="end" transform="rotate(-35 143.12,545)" font-size="13">Exploits</text><text x="143.12" y="72.00" text-anchor="middle" font-size="12">69582</text><text x="249.38" y="545" text-anchor="end" transform="rotate(-35 249.38,545)" font-size="13">Fuzzers</text><text x="249.38" y="274.47" text-anchor="middle" font-size="12">34361</text><text x="355.62" y="545" text-anchor="end" transform="rotate(-35 355.62,545)" font-size="13">Dos</text><text x="355.62" y="327.61" text-anchor="middle" font-size="12">25117</text><text x="461.88" y="545" text-anchor="end" transform="rotate(-35 461.88,545)" font-size="13">Reconnaissance</text><text x="461.88" y="353.75" text-anchor="middle" font-size="12">20571</text><text x="568.12" y="545" text-anchor="end" transform="rotate(-35 568.12,545)" font-size="13">Generic</text><text x="568.12" y="355.33" text-anchor="middle" font-size="12">20296</text><text x="674.38" y="545" text-anchor="end" transform="rotate(-35 674.38,545)" font-size="13">Backdoor</text><text x="674.38" y="447.90" text-anchor="middle" font-size="12">4192</text><text x="780.62" y="545" text-anchor="end" transform="rotate(-35 780.62,545)" font-size="13">Analysis</text><text x="780.62" y="460.89" text-anchor="middle" font-size="12">1933</text><text x="886.88" y="545" text-anchor="end" transform="rotate(-35 886.88,545)" font-size="13">Shellcode</text><text x="886.88" y="463.14" text-anchor="middle" font-size="12">1541</text>
</svg>