<svg xmlns="http://www.w3.org/2000/svg" width="1000" height="600">
  <rect width="100%" height="100%" fill="#f0fff4"/>
  <text x="500.0" y="40" text-anchor="middle" font-size="28" font-weight="bold">Top Destination Ports</text>
  <line x1="100" y1="70" x2="100" y2="500" stroke="#2d3748" stroke-width="2"/>
  <line x1="100" y1="500" x2="940" y2="500" stroke="#2d3748" stroke-width="2"/>
  <polyline fill="none" stroke="#c53030" stroke-width="4" points="100.00,70.00 193.33,485.50 286.67,474.95 380.00,434.31 473.33,408.67 566.67,454.39 660.00,474.10 753.33,476.43 846.67,491.28 940.00,484.20"/>
  <circle cx="100.00" cy="70.00" r="5" fill="#c53030"/><circle cx="193.33" cy="485.50" r="5" fill="#c53030"/><circle cx="286.67" cy="474.95" r="5" fill="#c53030"/><circle cx="380.00" cy="434.31" r="5" fill="#c53030"/><circle cx="473.33" cy="408.67" r="5" fill="#c53030"/><circle cx="566.67" cy="454.39" r="5" fill="#c53030"/><circle cx="660.00" cy="474.10" r="5" fill="#c53030"/><circle cx="753.33" cy="476.43" r="5" fill="#c53030"/><circle cx="846.67" cy="491.28" r="5" fill="#c53030"/><circle cx="940.00" cy="484.20" r="5" fill="#c53030"/>
  <text x="100.00" y="560" text-anchor="middle" font-size="13">0</text><text x="100.00" y="60.00" text-anchor="middle" font-size="12">92418</text><text x="193.33" y="560" text-anchor="middle" font-size="13">21</text><text x="193.33" y="475.50" text-anchor="middle" font-size="12">3117</text><text x="286.67" y="560" text-anchor="middle" font-size="13">25</text><text x="286.67" y="464.95" text-anchor="middle" font-size="12">5384</text><text x="380.00" y="560" text-anchor="middle" font-size="13">53</text><text x="380.00" y="424.31" text-anchor="middle" font-size="12">14118</text><text x="473.33" y="560" text-anchor="middle" font-size="13">80</text><text x="473.33" y="398.67" text-anchor="middle" font-size="12">19629</text><text x="566.67" y="560" text-anchor="middle" font-size="13">111</text><text x="566.67" y="444.39" text-anchor="middle" font-size="12">9802</text><text x="660.00" y="560" text-anchor="middle" font-size="13">179</text><text x="660.00" y="464.10" text-anchor="middle" font-size="12">5566</text><text x="753.33" y="560" text-anchor="middle" font-size="13">445</text><text x="753.33" y="466.43" text-anchor="middle" font-size="12">5065</text><text x="846.67" y="560" text-anchor="middle" font-size="13">514</text><text x="846.67" y="481.28" text-anchor="middle" font-size="12">1875</text><text x="940.00" y="560" text-anchor="middle" font-size="13">520</text><text x="940.00" y="474.20" text-anchor="middle" font-size="12">3396</text>
</svg>