<svg xmlns="http://www.w3.org/2000/svg" width="900" height="600">
  <rect width="100%" height="100%" fill="#fffaf0"/>
  <text x="450.0" y="50" text-anchor="middle" font-size="28" font-weight="bold">Shperndarja e protokolleve</text>
  <path d="M 280 320 L 280.00 140.00 A 180 180 0 0 1 326.57 493.87 Z" fill="#2b6cb0" stroke="#ffffff" stroke-width="2"/><path d="M 280 320 L 326.57 493.87 A 180 180 0 0 1 118.14 398.76 Z" fill="#dd6b20" stroke="#ffffff" stroke-width="2"/><path d="M 280 320 L 118.14 398.76 A 180 180 0 0 1 155.34 190.16 Z" fill="#38a169" stroke="#ffffff" stroke-width="2"/><path d="M 280 320 L 155.34 190.16 A 180 180 0 0 1 230.27 147.01 Z" fill="#805ad5" stroke="#ffffff" stroke-width="2"/><path d="M 280 320 L 230.27 147.01 A 180 180 0 0 1 269.47 140.31 Z" fill="#d53f8c" stroke="#ffffff" stroke-width="2"/><path d="M 280 320 L 269.47 140.31 A 180 180 0 0 1 280.00 140.00 Z" fill="#319795" stroke="#ffffff" stroke-width="2"/>
  <rect x="560" y="120" width="18" height="18" fill="#2b6cb0"/><text x="588" y="134" font-size="15">tcp (57778)</text><rect x="560" y="154" width="18" height="18" fill="#dd6b20"/><text x="588" y="168" font-size="15">udp (27679)</text><rect x="560" y="188" width="18" height="18" fill="#38a169"/><text x="588" y="202" font-size="15">unas (25251)</text><rect x="560" y="222" width="18" height="18" fill="#805ad5"/><text x="588" y="236" font-size="15">ospf (9733)</text><rect x="560" y="256" width="18" height="18" fill="#d53f8c"/><text x="588" y="270" font-size="15">sctp (4442)</text><rect x="560" y="290" width="18" height="18" fill="#319795"/><text x="588" y="304" font-size="15">any (1174)</text>
</svg>